<svg width="235" height="230" viewBox="0 0 235 230" fill="none" xmlns="http://www.w3.org/2000/svg">
<path d="M197.188 192.186L203.692 198.69" stroke="black" stroke-width="2" stroke-linecap="round" stroke-linejoin="round"/>
<path d="M208.871 203.867L215.376 210.372" stroke="black" stroke-width="2" stroke-linecap="round" stroke-linejoin="round"/>
<path d="M215.376 192.186L208.871 198.69" stroke="black" stroke-width="2" stroke-linecap="round" stroke-linejoin="round"/>
<path d="M203.692 203.867L197.188 210.372" stroke="black" stroke-width="2" stroke-linecap="round" stroke-linejoin="round"/>
<path d="M185.402 19.1855L191.907 25.6901" stroke="black" stroke-width="2" stroke-linecap="round" stroke-linejoin="round"/>
<path d="M197.086 30.8672L203.59 37.3717" stroke="black" stroke-width="2" stroke-linecap="round" stroke-linejoin="round"/>
<path d="M203.59 19.1856L197.086 25.69" stroke="black" stroke-width="2" stroke-linecap="round" stroke-linejoin="round"/>
<path d="M191.907 30.8672L185.402 37.3717" stroke="black" stroke-width="2" stroke-linecap="round" stroke-linejoin="round"/>
<path d="M19.1875 71.1855L25.692 77.6901" stroke="black" stroke-width="2" stroke-linecap="round" stroke-linejoin="round"/>
<path d="M30.8711 82.8672L37.3756 89.3717" stroke="black" stroke-width="2" stroke-linecap="round" stroke-linejoin="round"/>
<path d="M37.3756 71.1856L30.8711 77.69" stroke="black" stroke-width="2" stroke-linecap="round" stroke-linejoin="round"/>
<path d="M25.692 82.8672L19.1875 89.3717" stroke="black" stroke-width="2" stroke-linecap="round" stroke-linejoin="round"/>
<circle cx="59.4531" cy="34.4824" r="4" fill="#FFDD35" stroke="black" stroke-width="2"/>
<circle cx="182.453" cy="194.482" r="4" fill="#FFDD35" stroke="black" stroke-width="2"/>
<circle cx="190.453" cy="80.4824" r="4" fill="#FFDD35" stroke="black" stroke-width="2"/>
<circle cx="125.5" cy="114.5" r="91.5" fill="#D3EAFF"/>
<path d="M99.7487 80.3105H151.25C157.904 80.3105 163.307 86.4432 163.307 93.9944V142.132C163.307 149.683 157.904 155.816 151.25 155.816H99.7487C93.0951 155.816 87.6914 149.683 87.6914 142.132V93.9944C87.6914 86.4432 93.0951 80.3105 99.7487 80.3105Z" fill="#275BA7"/>
<path d="M99.7504 83.6462H151.252C156.287 83.6462 160.373 88.2839 160.373 93.9982V142.139C160.373 147.853 156.287 152.491 151.252 152.491H99.7504C94.7153 152.491 90.6289 147.853 90.6289 142.139V93.9946C90.6289 88.2803 94.7153 83.6426 99.7504 83.6426V83.6462Z" fill="white"/>
<path d="M161.839 100.829H89.1593C88.3484 100.829 87.6914 100.084 87.6914 99.1634V93.9983C87.6914 86.4507 93.1015 80.3145 99.7487 80.3145H151.25C157.9 80.3145 163.307 86.4544 163.307 93.9983V99.1634C163.307 100.084 162.65 100.829 161.839 100.829Z" fill="#275BA7"/>
<path d="M90.6289 97.4977H160.373V93.9985C160.373 88.2914 156.28 83.6465 151.252 83.6465H99.7504C94.7217 83.6465 90.6289 88.2914 90.6289 93.9985V97.4977Z" fill="#00AEE8"/>
<path d="M102.787 92.4892C101.018 92.4892 99.582 90.8596 99.582 88.8518V76.8229C99.582 74.8151 101.018 73.1855 102.787 73.1855C104.556 73.1855 105.992 74.8151 105.992 76.8229V88.8518C105.992 90.8596 104.556 92.4892 102.787 92.4892Z" fill="#275BA7"/>
<path d="M125.498 92.4892C123.729 92.4892 122.293 90.8596 122.293 88.8518V76.8229C122.293 74.8151 123.729 73.1855 125.498 73.1855C127.267 73.1855 128.703 74.8151 128.703 76.8229V88.8518C128.703 90.8596 127.267 92.4892 125.498 92.4892Z" fill="#275BA7"/>
<path d="M148.213 92.4892C146.444 92.4892 145.008 90.8596 145.008 88.8518V76.8229C145.008 74.8151 146.444 73.1855 148.213 73.1855C149.982 73.1855 151.418 74.8151 151.418 76.8229V88.8518C151.418 90.8596 149.982 92.4892 148.213 92.4892Z" fill="#275BA7"/>
<path d="M104.144 120.582V114.555L117.92 111.767V141H111.237V118.819L104.144 120.582ZM131.114 130.914C131.114 131.898 131.319 132.759 131.729 133.497C132.166 134.208 132.74 134.768 133.451 135.178C134.189 135.561 135.022 135.752 135.952 135.752C136.854 135.752 137.66 135.561 138.371 135.178C139.109 134.768 139.683 134.208 140.093 133.497C140.53 132.759 140.749 131.898 140.749 130.914C140.749 129.957 140.53 129.11 140.093 128.372C139.683 127.634 139.109 127.06 138.371 126.65C137.66 126.24 136.854 126.035 135.952 126.035C135.022 126.035 134.189 126.24 133.451 126.65C132.74 127.06 132.166 127.634 131.729 128.372C131.319 129.11 131.114 129.957 131.114 130.914ZM135.87 112.423H144.644L135.378 122.796L133.943 123.411C134.708 122.646 135.432 122.154 136.116 121.935C136.826 121.716 137.701 121.607 138.74 121.607C139.806 121.607 140.858 121.826 141.897 122.263C142.963 122.673 143.919 123.288 144.767 124.108C145.641 124.901 146.325 125.871 146.817 127.019C147.336 128.167 147.596 129.465 147.596 130.914C147.596 133.265 147.063 135.246 145.997 136.859C144.958 138.444 143.55 139.647 141.774 140.467C140.024 141.26 138.084 141.656 135.952 141.656C133.792 141.656 131.824 141.26 130.048 140.467C128.298 139.647 126.891 138.444 125.825 136.859C124.786 135.246 124.267 133.265 124.267 130.914C124.267 129.383 124.581 127.962 125.21 126.65C125.866 125.338 126.658 124.108 127.588 122.96L135.87 112.423Z" fill="#2C9AFF"/>
</svg>
