<svg width="235" height="230" viewBox="0 0 235 230" fill="none" xmlns="http://www.w3.org/2000/svg">
<path d="M197.188 192.186L203.692 198.69" stroke="black" stroke-width="2" stroke-linecap="round" stroke-linejoin="round"/>
<path d="M208.871 203.867L215.376 210.372" stroke="black" stroke-width="2" stroke-linecap="round" stroke-linejoin="round"/>
<path d="M215.376 192.186L208.871 198.69" stroke="black" stroke-width="2" stroke-linecap="round" stroke-linejoin="round"/>
<path d="M203.692 203.867L197.188 210.372" stroke="black" stroke-width="2" stroke-linecap="round" stroke-linejoin="round"/>
<path d="M185.402 19.1855L191.907 25.6901" stroke="black" stroke-width="2" stroke-linecap="round" stroke-linejoin="round"/>
<path d="M197.086 30.8672L203.59 37.3717" stroke="black" stroke-width="2" stroke-linecap="round" stroke-linejoin="round"/>
<path d="M203.59 19.1856L197.086 25.69" stroke="black" stroke-width="2" stroke-linecap="round" stroke-linejoin="round"/>
<path d="M191.907 30.8672L185.402 37.3717" stroke="black" stroke-width="2" stroke-linecap="round" stroke-linejoin="round"/>
<path d="M19.1875 71.1855L25.692 77.6901" stroke="black" stroke-width="2" stroke-linecap="round" stroke-linejoin="round"/>
<path d="M30.8711 82.8672L37.3756 89.3717" stroke="black" stroke-width="2" stroke-linecap="round" stroke-linejoin="round"/>
<path d="M37.3756 71.1856L30.8711 77.69" stroke="black" stroke-width="2" stroke-linecap="round" stroke-linejoin="round"/>
<path d="M25.692 82.8672L19.1875 89.3717" stroke="black" stroke-width="2" stroke-linecap="round" stroke-linejoin="round"/>
<circle cx="59.4531" cy="34.4824" r="4" fill="#FFDD35" stroke="black" stroke-width="2"/>
<circle cx="182.453" cy="194.482" r="4" fill="#FFDD35" stroke="black" stroke-width="2"/>
<circle cx="190.453" cy="80.4824" r="4" fill="#FFDD35" stroke="black" stroke-width="2"/>
<circle cx="125.5" cy="114.5" r="91.5" fill="#D3EAFF"/>
<path d="M99.7487 80.3105H151.25C157.904 80.3105 163.307 86.4432 163.307 93.9944V142.132C163.307 149.683 157.904 155.816 151.25 155.816H99.7487C93.0951 155.816 87.6914 149.683 87.6914 142.132V93.9944C87.6914 86.4432 93.0951 80.3105 99.7487 80.3105Z" fill="#275BA7"/>
<path d="M99.7504 83.6462H151.252C156.287 83.6462 160.373 88.2839 160.373 93.9982V142.139C160.373 147.853 156.287 152.491 151.252 152.491H99.7504C94.7153 152.491 90.6289 147.853 90.6289 142.139V93.9946C90.6289 88.2803 94.7153 83.6426 99.7504 83.6426V83.6462Z" fill="white"/>
<path d="M161.839 100.829H89.1593C88.3484 100.829 87.6914 100.084 87.6914 99.1634V93.9983C87.6914 86.4507 93.1015 80.3145 99.7487 80.3145H151.25C157.9 80.3145 163.307 86.4544 163.307 93.9983V99.1634C163.307 100.084 162.65 100.829 161.839 100.829Z" fill="#275BA7"/>
<path d="M90.6289 97.4977H160.373V93.9985C160.373 88.2914 156.28 83.6465 151.252 83.6465H99.7504C94.7217 83.6465 90.6289 88.2914 90.6289 93.9985V97.4977Z" fill="#00AEE8"/>
<path d="M102.787 92.4892C101.018 92.4892 99.582 90.8596 99.582 88.8518V76.8229C99.582 74.8151 101.018 73.1855 102.787 73.1855C104.556 73.1855 105.992 74.8151 105.992 76.8229V88.8518C105.992 90.8596 104.556 92.4892 102.787 92.4892Z" fill="#275BA7"/>
<path d="M125.498 92.4892C123.729 92.4892 122.293 90.8596 122.293 88.8518V76.8229C122.293 74.8151 123.729 73.1855 125.498 73.1855C127.267 73.1855 128.703 74.8151 128.703 76.8229V88.8518C128.703 90.8596 127.267 92.4892 125.498 92.4892Z" fill="#275BA7"/>
<path d="M148.213 92.4892C146.444 92.4892 145.008 90.8596 145.008 88.8518V76.8229C145.008 74.8151 146.444 73.1855 148.213 73.1855C149.982 73.1855 151.418 74.8151 151.418 76.8229V88.8518C151.418 90.8596 149.982 92.4892 148.213 92.4892Z" fill="#275BA7"/>
<path d="M101.937 141L114.729 127.757C115.494 126.91 116.15 126.144 116.697 125.461C117.271 124.778 117.694 124.108 117.968 123.452C118.268 122.769 118.419 122.044 118.419 121.279C118.419 120.842 118.337 120.404 118.173 119.967C118.009 119.53 117.763 119.147 117.435 118.819C117.107 118.464 116.697 118.19 116.205 117.999C115.713 117.78 115.139 117.671 114.483 117.671C113.608 117.671 112.829 117.89 112.146 118.327C111.49 118.764 110.984 119.379 110.629 120.172C110.301 120.965 110.137 121.88 110.137 122.919H103.331C103.331 120.869 103.754 118.997 104.602 117.302C105.449 115.607 106.72 114.254 108.415 113.243C110.137 112.232 112.228 111.726 114.688 111.726C116.464 111.726 118.036 111.999 119.403 112.546C120.769 113.065 121.904 113.776 122.806 114.678C123.735 115.553 124.432 116.523 124.897 117.589C125.361 118.655 125.594 119.735 125.594 120.828C125.594 122.386 125.211 123.821 124.446 125.133C123.68 126.418 122.683 127.593 121.453 128.659L114.77 134.645H126.25V141H101.937ZM130.811 120.582V114.555L144.587 111.767V141H137.904V118.819L130.811 120.582Z" fill="#2C9AFF"/>
</svg>
