<svg width="66" height="41" viewBox="0 0 66 41" fill="none" xmlns="http://www.w3.org/2000/svg">
<mask id="mask0_75_240" style="mask-type:alpha" maskUnits="userSpaceOnUse" x="0" y="0" width="66" height="41">
<path d="M0.763458 0.714355H65.5913V40.2776H0.763458V0.714355Z" fill="white"/>
</mask>
<g mask="url(#mask0_75_240)">
<path fill-rule="evenodd" clip-rule="evenodd" d="M63.362 0.713745H3.00067C1.76954 0.713745 0.763458 1.72178 0.763458 2.9608V38.0264C0.763458 39.2697 1.76954 40.2777 3.00067 40.2777H63.362C64.5924 40.2777 65.5915 39.2697 65.5915 38.0264V2.9608C65.5915 1.72178 64.5924 0.713745 63.362 0.713745ZM62.8481 2.05802C63.6263 2.05802 64.2622 2.69237 64.2622 3.48141V37.51C64.2622 38.2977 63.6263 38.9348 62.8481 38.9348H3.51178C2.73005 38.9348 2.09555 38.2977 2.09555 37.51V3.48141C2.09555 2.69872 2.73005 2.05802 3.51178 2.05802H62.8481Z" fill="white"/>
</g>
<path fill-rule="evenodd" clip-rule="evenodd" d="M27.7202 9.41479C27.6213 10.0456 27.5926 10.5634 27.5926 11.5552V20.4735C27.5926 21.0407 27.7265 21.8297 27.7265 21.8297C27.7265 21.8297 27.6788 22.3447 27.7202 22.6131H25.22C25.26 22.3504 25.22 21.8361 25.22 21.8361C25.22 21.8361 25.3505 21.0442 25.3505 20.4735V11.5552C25.3505 10.5281 25.3168 10.0795 25.22 9.41479H27.7202Z" fill="white"/>
<path fill-rule="evenodd" clip-rule="evenodd" d="M34.5015 15.7834C36.0138 15.7834 36.8341 14.9732 36.8341 13.5173C36.8341 12.8477 36.6539 12.3044 36.2942 11.9216C35.9142 11.5062 35.3709 11.3261 34.5015 11.3261H31.3578V15.7834H34.5015ZM29.054 22.6129C29.0897 22.3445 29.054 21.8224 29.054 21.8224C29.054 21.8224 29.1879 21.0073 29.1823 20.4739V11.5062C29.1823 10.7122 29.15 10.1111 29.054 9.37006C29.7593 9.40396 30.2697 9.41456 31.1411 9.41456H34.5814C36.1757 9.41456 37.2975 9.80025 38.0848 10.5942C38.7607 11.2554 39.1049 12.255 39.1049 13.4439C39.1049 14.7034 38.7221 15.7375 38.0035 16.4941C37.1958 17.3029 36.079 17.6886 34.5015 17.6886H31.3578V20.4563C31.3578 20.9861 31.4854 21.8224 31.4854 21.8224C31.4854 21.8224 31.4489 22.3558 31.4854 22.6129H29.054Z" fill="white"/>
<path fill-rule="evenodd" clip-rule="evenodd" d="M55.2911 20.7386H51.7555V16.6585H55.2617C56.0161 16.6585 56.6421 16.8598 57.0544 17.2222C57.4197 17.557 57.576 18.0006 57.576 18.6689C57.576 20.0167 56.7557 20.7386 55.2911 20.7386ZM51.7555 11.2778H55.16C55.8191 11.2778 56.382 11.4594 56.7389 11.7864C57.0053 12.0315 57.1701 12.4843 57.1701 13.0106C57.1701 14.143 56.4283 14.8225 55.1754 14.8225H51.7555V11.2778ZM41.5734 17.1593L43.2876 12.2548C43.3303 12.1001 43.3303 12.1001 43.5968 11.323C43.7811 11.8719 43.826 12.0697 43.894 12.2548L45.6524 17.1593H41.5734ZM58.8317 16.4423C58.3886 16.0305 58.0072 15.8659 57.1701 15.6843C57.8102 15.4858 58.1053 15.334 58.4685 14.9899C59.0932 14.41 59.3919 13.6612 59.3919 12.6475C59.3919 10.5771 57.9581 9.41504 55.4082 9.41504H51.5255C50.4073 9.41504 50.1485 9.41504 49.4545 9.38538C49.5337 10.0663 49.5842 10.6597 49.5842 11.4226C49.5842 11.4226 49.5764 21.2239 49.5638 21.5107C49.4636 21.2783 45.5711 11.0942 45.5711 11.0942C45.1897 10.0798 45.0943 9.81345 45.0095 9.41504H42.149C42.0655 9.84595 41.9351 10.2613 41.6246 11.0942L38.0034 20.6553C37.847 21.0628 37.134 21.8222 37.134 21.8222C37.134 21.8222 37.1298 22.3944 37.1298 22.6127H39.8283C39.9573 21.9169 40.0253 21.6626 40.3205 20.8735L40.9795 19.0644H46.242L46.9038 20.8735C47.0847 21.3553 47.267 22.0688 47.3624 22.6127H55.5863C58.3192 22.6127 59.8518 21.2981 59.8518 18.9818C59.8518 17.9024 59.5061 17.0781 58.8317 16.4423Z" fill="white"/>
<path fill-rule="evenodd" clip-rule="evenodd" d="M27.7202 8.63324C27.6213 9.25982 27.5926 9.77125 27.5926 10.7666V19.6855C27.5926 20.6611 27.6213 21.1987 27.7202 21.8224H25.22C25.3168 21.1987 25.3505 20.6611 25.3505 19.6855V10.7666C25.3505 9.74299 25.3168 9.29443 25.22 8.63324H27.7202Z" fill="white"/>
<path fill-rule="evenodd" clip-rule="evenodd" d="M34.5015 14.9915C36.0138 14.9915 36.8341 14.1806 36.8341 12.7219C36.8341 12.0642 36.6539 11.5139 36.2942 11.1297C35.9142 10.715 35.3709 10.537 34.5015 10.537H31.3578V14.9915H34.5015ZM29.054 21.8224C29.15 21.1633 29.1823 20.5806 29.1823 19.6863V10.715C29.1823 9.9196 29.15 9.32481 29.054 8.57886C29.7593 8.61488 30.2697 8.63325 31.1411 8.63325H34.5814C36.1757 8.63325 37.2975 9.00693 38.0848 9.80516C38.7607 10.4706 39.1049 11.4645 39.1049 12.6562C39.1049 13.9171 38.7221 14.9449 38.0035 15.7092C37.1958 16.5202 36.079 16.8995 34.5015 16.8995H31.3578V19.6672C31.3578 20.5636 31.39 21.1987 31.4854 21.8224H29.054Z" fill="white"/>
<path fill-rule="evenodd" clip-rule="evenodd" d="M55.2911 19.9529H51.7555V15.8756H55.2617C56.0161 15.8756 56.6421 16.0734 57.0544 16.4357C57.4197 16.7699 57.576 17.2163 57.576 17.881C57.576 19.2225 56.7557 19.9529 55.2911 19.9529ZM51.7555 10.4893H55.16C55.8191 10.4893 56.382 10.6673 56.7389 10.9993C57.0053 11.2473 57.1701 11.6958 57.1701 12.2242C57.1701 13.3537 56.4283 14.0333 55.1754 14.0333H51.7555V10.4893ZM41.5734 16.3686L43.2876 11.4641C43.3303 11.3151 43.3303 11.3151 43.5968 10.5373C43.7811 11.0827 43.826 11.2805 43.894 11.4641L45.6524 16.3686H41.5734ZM58.8317 15.6594C58.3886 15.2455 58.0072 15.0766 57.1701 14.8972C57.8102 14.6959 58.1053 14.5497 58.4685 14.1965C59.0932 13.6172 59.3919 12.8727 59.3919 11.8611C59.3919 9.79278 57.9581 8.63358 55.4082 8.63358H51.5255C50.4073 8.63358 50.1485 8.63358 49.4545 8.59967C49.5337 9.27216 49.5842 9.87189 49.5842 10.6369C49.5842 10.6369 49.5764 20.4318 49.5638 20.7314C49.4636 20.4891 45.5711 10.3035 45.5711 10.3035C45.1897 9.29406 45.0943 9.02845 45.0095 8.63358H42.149C42.0655 9.06095 41.9351 9.47702 41.6246 10.3035L38.0034 19.8703C37.7082 20.6296 37.3808 21.3728 37.1298 21.822H39.8283C39.9573 21.1276 40.0253 20.8783 40.3205 20.0871L40.9795 18.2738H46.242L46.9038 20.0871C47.0847 20.5632 47.267 21.2781 47.3624 21.822H55.5863C58.3192 21.822 59.8518 20.5152 59.8518 18.1933C59.8518 17.1181 59.5061 16.2902 58.8317 15.6594Z" fill="white"/>
<path fill-rule="evenodd" clip-rule="evenodd" d="M22.0347 10.3758C17.5014 7.7416 11.8057 7.7416 7.27234 10.3758V8.37312C11.8057 5.35609 17.5014 5.35609 22.0347 8.37312V10.1843V10.3758Z" fill="white"/>
<path fill-rule="evenodd" clip-rule="evenodd" d="M22.0347 14.081C17.5014 12.3884 11.8057 12.3884 7.27234 14.081V12.0734C11.8057 9.99939 17.5014 9.99939 22.0347 12.0734V13.8846V14.081Z" fill="white"/>
<path fill-rule="evenodd" clip-rule="evenodd" d="M22.0347 17.7792C17.5014 17.0311 11.8057 17.0311 7.27234 17.7792V15.7744C11.8057 14.6427 17.5014 14.6427 22.0347 15.7744V17.5807V17.7792Z" fill="white"/>
<path fill-rule="evenodd" clip-rule="evenodd" d="M22.0347 21.4098C17.5014 21.6048 11.8057 21.6048 7.27234 21.4098V19.3987C11.8057 19.2073 17.5014 19.2073 22.0347 19.3987V21.2085V21.4098Z" fill="white"/>
<path fill-rule="evenodd" clip-rule="evenodd" d="M22.0347 25.0377C17.5014 26.1736 11.8057 26.1736 7.27234 25.0377V23.0301C11.8057 23.7803 17.5014 23.7803 22.0347 23.0301V25.0377Z" fill="white"/>
<path fill-rule="evenodd" clip-rule="evenodd" d="M7.2722 7.58537V9.59649C11.7964 6.9588 17.5013 6.9588 22.0346 9.59649V9.39305V7.58537C19.7679 6.07651 17.2124 5.31854 14.652 5.31854C12.0916 5.31854 9.53676 6.07651 7.2722 7.58537Z" fill="white"/>
<path fill-rule="evenodd" clip-rule="evenodd" d="M8.49299 27.9515C8.47807 28.0474 8.47332 28.1253 8.47332 28.2769V29.6356C8.47332 29.7844 8.47807 29.8651 8.49299 29.9618H8.11852C8.13344 29.8651 8.13819 29.7844 8.13819 29.6356V28.2769C8.13819 28.1204 8.13344 28.0523 8.11852 27.9515H8.49299Z" fill="white"/>
<path fill-rule="evenodd" clip-rule="evenodd" d="M10.2453 29.9615C10.2033 29.8752 10.1592 29.8022 10.0879 29.691L9.45226 28.7084C9.40545 28.6333 9.34372 28.5248 9.28402 28.4059C9.28673 28.4407 9.28673 28.4407 9.29419 28.5346C9.29691 28.5826 9.30166 28.6966 9.30166 28.7543V29.5825C9.30166 29.7515 9.30912 29.8704 9.32133 29.9615H8.96178C8.97399 29.878 8.98145 29.7515 8.98145 29.5797V28.2766C8.98145 28.1459 8.9767 28.0548 8.96178 27.9512H9.34575C9.36814 28.0138 9.41224 28.0902 9.49636 28.2189L10.1198 29.1813C10.1788 29.2717 10.2575 29.4031 10.3118 29.5046C10.3016 29.4059 10.2948 29.2536 10.2948 29.1479V28.2995C10.2948 28.1507 10.2894 28.0471 10.2745 27.9512H10.6347C10.6198 28.052 10.615 28.1459 10.615 28.2995V29.6353C10.615 29.7765 10.6198 29.8725 10.6347 29.9615H10.2453Z" fill="white"/>
<path fill-rule="evenodd" clip-rule="evenodd" d="M11.3944 29.3347C11.4039 29.4488 11.4188 29.4988 11.4636 29.5572C11.5348 29.6532 11.663 29.7061 11.8231 29.7061C12.0694 29.7061 12.2173 29.5927 12.2173 29.4036C12.2173 29.2993 12.1705 29.2137 12.0938 29.1713C12.0199 29.1303 12.005 29.1275 11.6651 29.0468C11.4805 29.0037 11.3815 28.9641 11.2933 28.8932C11.1678 28.7923 11.1034 28.6533 11.1034 28.4836C11.1034 28.1324 11.3795 27.9058 11.8035 27.9058C12.0843 27.9058 12.296 27.9941 12.4167 28.161C12.4785 28.2444 12.5076 28.3195 12.5375 28.4537L12.1854 28.4968C12.1705 28.4106 12.1528 28.3675 12.1115 28.3174C12.047 28.2388 11.9385 28.1957 11.8035 28.1957C11.5891 28.1957 11.4432 28.307 11.4432 28.4718C11.4432 28.5775 11.4975 28.6512 11.6108 28.7013C11.6651 28.7235 11.6847 28.7291 11.9588 28.7923C12.1528 28.8348 12.2709 28.8834 12.3598 28.946C12.5002 29.0524 12.5646 29.1908 12.5646 29.3799C12.5646 29.5593 12.5104 29.7061 12.4093 29.8097C12.279 29.9383 12.0843 30.0016 11.8204 30.0016C11.6183 30.0016 11.4215 29.9515 11.3028 29.8709C11.2044 29.802 11.1332 29.7061 11.0864 29.5823C11.064 29.5239 11.0545 29.4766 11.0396 29.373L11.3944 29.3347Z" fill="white"/>
<path fill-rule="evenodd" clip-rule="evenodd" d="M13.8499 29.6329C13.8499 29.7692 13.8547 29.8575 13.8696 29.9618H13.4972C13.5121 29.8547 13.5175 29.7692 13.5175 29.6329V28.2547H13.1844C13.0392 28.2547 12.9334 28.2588 12.8473 28.2721V27.9334C12.9355 27.9459 13.042 27.9515 13.1824 27.9515H14.1579C14.335 27.9515 14.4266 27.9459 14.5202 27.9334V28.2721C14.4286 28.2588 14.335 28.2547 14.1579 28.2547H13.8499V29.6329Z" fill="white"/>
<path fill-rule="evenodd" clip-rule="evenodd" d="M15.2263 27.9515C15.2114 28.0474 15.2066 28.1253 15.2066 28.2769V29.6356C15.2066 29.7844 15.2114 29.8651 15.2263 29.9618H14.8518C14.8667 29.8651 14.8715 29.7844 14.8715 29.6356V28.2769C14.8715 28.1204 14.8667 28.0523 14.8518 27.9515H15.2263Z" fill="white"/>
<path fill-rule="evenodd" clip-rule="evenodd" d="M16.56 29.6329C16.56 29.7692 16.5647 29.8575 16.5796 29.9618H16.2072C16.2221 29.8547 16.2275 29.7692 16.2275 29.6329V28.2547H15.8951C15.7493 28.2547 15.6434 28.2588 15.5573 28.2721V27.9334C15.6455 27.9459 15.752 27.9515 15.8924 27.9515H16.868C17.045 27.9515 17.1366 27.9459 17.2302 27.9334V28.2721C17.1386 28.2588 17.045 28.2547 16.868 28.2547H16.56V29.6329Z" fill="white"/>
<path fill-rule="evenodd" clip-rule="evenodd" d="M19.2564 27.9515C19.2414 28.0447 19.2367 28.1357 19.2367 28.2943V29.1906C19.2367 29.7135 18.9334 30.007 18.3961 30.007C18.1234 30.007 17.8968 29.9207 17.7612 29.7692C17.635 29.6301 17.5759 29.4416 17.5759 29.1885V28.2971C17.5759 28.1399 17.5712 28.0419 17.5563 27.9515H17.9233C17.909 28.037 17.9036 28.133 17.9036 28.2971V29.1885C17.9036 29.5299 18.0766 29.7087 18.409 29.7087C18.7387 29.7087 18.909 29.5299 18.909 29.1857V28.2971C18.909 28.1357 18.9036 28.0447 18.8893 27.9515H19.2564Z" fill="white"/>
<path fill-rule="evenodd" clip-rule="evenodd" d="M20.5877 29.6329C20.5877 29.7692 20.5924 29.8575 20.6073 29.9618H20.2349C20.2498 29.8547 20.2552 29.7692 20.2552 29.6329V28.2547H19.9221C19.777 28.2547 19.6711 28.2588 19.585 28.2721V27.9334C19.6732 27.9459 19.7797 27.9515 19.9201 27.9515H20.8957C21.0727 27.9515 21.1643 27.9459 21.2579 27.9334V28.2721C21.1663 28.2588 21.0727 28.2547 20.8957 28.2547H20.5877V29.6329Z" fill="white"/>
<path fill-rule="evenodd" clip-rule="evenodd" d="M23.021 28.951C23.021 28.6965 22.9518 28.4914 22.8263 28.3628C22.7252 28.2619 22.595 28.2091 22.4471 28.2091C22.0923 28.2091 21.8677 28.497 21.8677 28.9538C21.8677 29.2062 21.9396 29.4183 22.0679 29.549C22.1689 29.6506 22.2992 29.7034 22.4498 29.7034C22.8019 29.7034 23.021 29.4155 23.021 28.951ZM23.0902 28.1632C23.27 28.3475 23.3656 28.6228 23.3656 28.951C23.3656 29.5901 23.0041 30.0045 22.4444 30.0045C21.8854 30.0045 21.5258 29.5928 21.5258 28.951C21.5258 28.6249 21.6242 28.3454 21.8067 28.1632C21.9763 27.9914 22.1812 27.9108 22.4417 27.9108C22.713 27.9108 22.9227 27.9914 23.0902 28.1632Z" fill="white"/>
<path fill-rule="evenodd" clip-rule="evenodd" d="M25.5306 28.9212C25.7572 28.9212 25.8806 28.7967 25.8806 28.5749C25.8806 28.4733 25.8535 28.3906 25.7992 28.3322C25.7422 28.2696 25.6608 28.2411 25.5306 28.2411H25.0598V28.9212H25.5306ZM24.7151 29.9614C24.7301 29.8606 24.7348 29.7723 24.7348 29.6353V28.2696C24.7348 28.1486 24.7301 28.0575 24.7151 27.9435C24.821 27.949 24.8969 27.9511 25.0279 27.9511H25.5428C25.7823 27.9511 25.9492 28.0088 26.0679 28.1305C26.1683 28.2314 26.2205 28.3829 26.2205 28.5644C26.2205 28.7571 26.1635 28.9128 26.055 29.0289C25.9349 29.1534 25.7673 29.2111 25.5306 29.2111H25.0598V29.6325C25.0598 29.7695 25.0645 29.8648 25.0794 29.9614H24.7151Z" fill="white"/>
<path fill-rule="evenodd" clip-rule="evenodd" d="M27.4512 28.3827C27.441 28.3548 27.4342 28.3249 27.4071 28.2415C27.3671 28.3604 27.3671 28.3604 27.3596 28.3827L27.1039 29.1302H27.7144L27.4512 28.3827ZM27.9709 29.9618C27.9559 29.8777 27.9295 29.7692 27.9023 29.6962L27.8033 29.4208H27.015L26.9166 29.6962C26.8718 29.8172 26.8623 29.8547 26.8427 29.9618H26.4383C26.4757 29.893 26.5245 29.7796 26.5693 29.6635L27.1113 28.206C27.1581 28.0795 27.1778 28.0169 27.19 27.9515H27.6188C27.631 28.012 27.6459 28.0517 27.7022 28.206L28.249 29.6635C28.3107 29.8248 28.3406 29.8958 28.3752 29.9618H27.9709Z" fill="white"/>
<path fill-rule="evenodd" clip-rule="evenodd" d="M29.5387 28.8275C29.6296 28.8275 29.7158 28.7948 29.7728 28.7364C29.8243 28.6835 29.8515 28.6105 29.8515 28.5146C29.8515 28.3324 29.7504 28.2385 29.5482 28.2385H29.0435V28.8275H29.5387ZM29.9478 29.9616C29.9424 29.9004 29.901 29.7718 29.8196 29.5576C29.6866 29.2085 29.6004 29.1153 29.4105 29.1153H29.0435V29.6299C29.0435 29.7822 29.0482 29.8629 29.0632 29.9616H28.6961C28.7111 29.8552 28.7158 29.7871 28.7158 29.6327V28.2719C28.7158 28.1384 28.7111 28.0619 28.6961 27.9437C28.7993 27.9485 28.8759 27.9513 29.0116 27.9513H29.6025C29.977 27.9513 30.1913 28.1432 30.1913 28.4763C30.1913 28.6383 30.1493 28.7642 30.0658 28.8525C29.9966 28.9262 29.9329 28.9582 29.7924 28.9992C29.9478 29.0493 29.9946 29.1202 30.2381 29.7113C30.2578 29.7565 30.3196 29.8928 30.3542 29.9616H29.9478Z" fill="white"/>
<path fill-rule="evenodd" clip-rule="evenodd" d="M31.5852 28.3827C31.575 28.3548 31.5682 28.3249 31.5411 28.2415C31.5011 28.3604 31.5011 28.3604 31.4936 28.3827L31.2379 29.1302H31.8484L31.5852 28.3827ZM32.1049 29.9618C32.0899 29.8777 32.0635 29.7692 32.0363 29.6962L31.9373 29.4208H31.149L31.0506 29.6962C31.0058 29.8172 30.9963 29.8547 30.9767 29.9618H30.5723C30.6097 29.893 30.6585 29.7796 30.7033 29.6635L31.2453 28.206C31.2921 28.0795 31.3118 28.0169 31.324 27.9515H31.7528C31.765 28.012 31.7799 28.0517 31.8362 28.206L32.383 29.6635C32.4447 29.8248 32.4746 29.8958 32.5092 29.9618H32.1049Z" fill="white"/>
<path fill-rule="evenodd" clip-rule="evenodd" d="M35.1637 29.9791C35.0748 29.9659 34.9887 29.9618 34.8137 29.9618H34.085C33.9467 29.9618 33.8605 29.9639 33.7716 29.9687C33.7865 29.8755 33.792 29.7824 33.792 29.6356V28.3249C33.792 28.1504 33.7865 28.0593 33.7716 27.9515H34.1441C34.1291 28.0544 34.1244 28.1385 34.1244 28.3221V29.6558H34.8137C34.9812 29.6558 35.0606 29.6502 35.1637 29.6384V29.9791Z" fill="white"/>
<path fill-rule="evenodd" clip-rule="evenodd" d="M36.3407 28.3827C36.3305 28.3548 36.3237 28.3249 36.2966 28.2415C36.2566 28.3604 36.2566 28.3604 36.2491 28.3827L35.9933 29.1302H36.6039L36.3407 28.3827ZM36.8603 29.9618C36.8454 29.8777 36.819 29.7692 36.7918 29.6962L36.6928 29.4208H35.9045L35.8061 29.6962C35.7613 29.8172 35.7518 29.8547 35.7321 29.9618H35.3278C35.3651 29.893 35.414 29.7796 35.4588 29.6635L36.0008 28.206C36.0476 28.0795 36.0673 28.0169 36.0795 27.9515H36.5082C36.5205 28.012 36.5354 28.0517 36.5917 28.206L37.1385 29.6635C37.2002 29.8248 37.2301 29.8958 37.2647 29.9618H36.8603Z" fill="white"/>
<path fill-rule="evenodd" clip-rule="evenodd" d="M39.3822 28.8757C39.5545 28.8757 39.6556 28.7769 39.6556 28.6024C39.6556 28.4278 39.5593 28.3374 39.3822 28.3374H39.0152V28.8757H39.3822ZM38.5051 30.0091C38.52 29.8985 38.5247 29.7845 38.5247 29.6357V28.2693C38.5247 28.133 38.52 28.0197 38.5051 27.9008C38.6211 27.9056 38.7093 27.9077 38.8673 27.9077H39.4066C39.8944 27.9077 40.1631 28.1483 40.1631 28.5878C40.1631 29.037 39.8822 29.3047 39.4046 29.3047H39.0152V29.628C39.0152 29.7768 39.0227 29.9006 39.0349 30.0091H38.5051Z" fill="white"/>
<path fill-rule="evenodd" clip-rule="evenodd" d="M41.3985 28.7819C41.5437 28.7819 41.6326 28.6908 41.6326 28.5469C41.6326 28.4057 41.5539 28.3327 41.4006 28.3327H41.0145V28.7819H41.3985ZM41.7486 30.0092C41.7336 29.9279 41.7038 29.825 41.6278 29.615C41.5491 29.3959 41.5193 29.3375 41.4575 29.2819C41.406 29.2339 41.3442 29.2137 41.2655 29.2137H41.0145V29.6282C41.0145 29.7999 41.0193 29.8931 41.0335 30.0092H40.5044C40.5193 29.8931 40.5241 29.8173 40.5241 29.6303V28.2722C40.5241 28.1151 40.5193 28.0219 40.5044 27.9002C40.6122 27.9058 40.7038 27.9079 40.8714 27.9079H41.5118C41.9107 27.9079 42.1427 28.1206 42.1427 28.4836C42.1427 28.663 42.0932 28.8042 41.9969 28.8981C41.9358 28.9565 41.8836 28.9836 41.7635 29.0246C41.889 29.0642 41.9453 29.1227 42.024 29.3021C42.0613 29.3827 42.0959 29.4682 42.2065 29.7415C42.2336 29.8118 42.2628 29.875 42.3245 30.0092H41.7486Z" fill="white"/>
<path fill-rule="evenodd" clip-rule="evenodd" d="M44.0625 28.9538C44.0625 28.5442 43.88 28.2973 43.5822 28.2973C43.2816 28.2973 43.0971 28.547 43.0971 28.9538C43.0971 29.3654 43.2816 29.6206 43.5822 29.6206C43.88 29.6206 44.0625 29.3682 44.0625 28.9538ZM44.5753 28.9482C44.5753 29.615 44.1785 30.0573 43.5794 30.0573C42.9757 30.0573 42.5869 29.6255 42.5869 28.9565C42.5869 28.2897 42.9757 27.8627 43.5822 27.8627C44.1887 27.8627 44.5753 28.2869 44.5753 28.9482Z" fill="white"/>
<path fill-rule="evenodd" clip-rule="evenodd" d="M45.9923 29.628C45.9923 29.7796 45.9978 29.8909 46.012 30.0091H45.4679C45.4829 29.8909 45.4876 29.7873 45.4876 29.628V28.3548H45.1966C45.0419 28.3548 44.9998 28.3576 44.8248 28.3729V27.8903C44.9055 27.9008 45.0419 27.9077 45.1918 27.9077H46.2712C46.4435 27.9077 46.5425 27.9035 46.6558 27.8903V28.3729C46.5439 28.3604 46.4482 28.3548 46.2712 28.3548H45.9923V29.628Z" fill="white"/>
<path fill-rule="evenodd" clip-rule="evenodd" d="M48.5085 30.0267C48.4027 30.0142 48.3138 30.0093 48.1022 30.0093H47.3261C47.1388 30.0093 47.0696 30.0121 46.9645 30.0163C46.9787 29.9161 46.9835 29.8223 46.9835 29.6477V28.2695C46.9835 28.1131 46.9787 28.0241 46.9645 27.9003C47.0649 27.9059 47.1341 27.9079 47.3261 27.9079H48.1123C48.2792 27.9079 48.3633 27.9031 48.4794 27.8906V28.3627C48.3661 28.3502 48.2772 28.3453 48.1123 28.3453H47.4719V28.716H48.0038C48.1659 28.716 48.2256 28.7139 48.3735 28.6986V29.1659C48.2575 29.1533 48.1734 29.1478 48.0038 29.1478H47.4719V29.5726H48.1069C48.2948 29.5726 48.4027 29.5678 48.5085 29.5546V30.0267Z" fill="white"/>
<path fill-rule="evenodd" clip-rule="evenodd" d="M50.1952 28.6407C50.1491 28.4106 50.0182 28.2972 49.8065 28.2972C49.5053 28.2972 49.331 28.5392 49.331 28.9564C49.331 29.3681 49.5128 29.6177 49.818 29.6177C49.9544 29.6177 50.0697 29.5593 50.1416 29.4592C50.183 29.398 50.2007 29.3479 50.2149 29.2415L50.7278 29.3201C50.681 29.5343 50.6267 29.658 50.5229 29.7825C50.3703 29.9612 50.1315 30.0572 49.8337 30.0572C49.5324 30.0572 49.2787 29.9612 49.1044 29.7797C48.9219 29.5899 48.8188 29.2944 48.8188 28.9564C48.8188 28.6129 48.9219 28.3222 49.1166 28.1255C49.2862 27.9565 49.5352 27.8626 49.8235 27.8626C50.1416 27.8626 50.3899 27.9739 50.55 28.1929C50.6294 28.2972 50.6708 28.3911 50.7027 28.5392L50.1952 28.6407Z" fill="white"/>
<path fill-rule="evenodd" clip-rule="evenodd" d="M52.3968 28.6407C52.3507 28.4106 52.2197 28.2972 52.0081 28.2972C51.7069 28.2972 51.5325 28.5392 51.5325 28.9564C51.5325 29.3681 51.7143 29.6177 52.0196 29.6177C52.156 29.6177 52.2713 29.5593 52.3432 29.4592C52.3846 29.398 52.4022 29.3479 52.4165 29.2415L52.9294 29.3201C52.8825 29.5343 52.8283 29.658 52.7245 29.7825C52.5718 29.9612 52.333 30.0572 52.0352 30.0572C51.734 30.0572 51.4803 29.9612 51.3059 29.7797C51.1234 29.5899 51.0203 29.2944 51.0203 28.9564C51.0203 28.6129 51.1234 28.3222 51.3181 28.1255C51.4877 27.9565 51.7367 27.8626 52.025 27.8626C52.3432 27.8626 52.5915 27.9739 52.7516 28.1929C52.831 28.2972 52.8724 28.3911 52.9043 28.5392L52.3968 28.6407Z" fill="white"/>
<path fill-rule="evenodd" clip-rule="evenodd" d="M53.8245 27.908C53.8096 28.0116 53.8048 28.0972 53.8048 28.2821V29.6353C53.8048 29.8091 53.8096 29.903 53.8245 30.0087H53.2825C53.2974 29.9107 53.3015 29.805 53.3015 29.6353V28.2821C53.3015 28.093 53.2974 28.0193 53.2825 27.908H53.8245Z" fill="white"/>
<path fill-rule="evenodd" clip-rule="evenodd" d="M55.0865 27.8095L54.9536 27.6281L55.5302 27.0898L55.7914 27.441L55.0865 27.8095ZM55.6659 28.9541C55.6659 28.5445 55.4834 28.297 55.1856 28.297C54.8844 28.297 54.6998 28.5473 54.6998 28.9541C54.6998 29.3651 54.8844 29.6203 55.1856 29.6203C55.4834 29.6203 55.6659 29.3678 55.6659 28.9541ZM56.1781 28.9485C56.1781 29.6154 55.7812 30.0569 55.1829 30.0569C54.5791 30.0569 54.1904 29.6251 54.1904 28.9562C54.1904 28.2893 54.5791 27.8624 55.1856 27.8624C55.7914 27.8624 56.1781 28.2873 56.1781 28.9485Z" fill="white"/>
<path fill-rule="evenodd" clip-rule="evenodd" d="M57.7206 28.9409C57.7919 29.0494 57.8394 29.13 57.8984 29.242C57.8882 29.1258 57.8835 29.0097 57.8835 28.8679V28.2921C57.8835 28.1252 57.878 28.0244 57.8638 27.9083H58.3882C58.3739 28.0223 58.3685 28.128 58.3685 28.2921V29.6328C58.3685 29.7871 58.376 29.9033 58.3882 30.0089H57.8482C57.8048 29.913 57.7478 29.8198 57.6643 29.6884L57.2084 28.984C57.1413 28.8832 57.0999 28.8074 57.0307 28.6732C57.0429 28.7865 57.0483 28.9263 57.0483 29.0494V29.6154C57.0483 29.7899 57.0531 29.9005 57.068 30.0089H56.5436C56.5579 29.9109 56.5626 29.7996 56.5626 29.6126V28.2845C56.5626 28.1384 56.5579 28.0244 56.5436 27.9083H57.0782C57.1026 27.9764 57.1569 28.0772 57.2532 28.224L57.7206 28.9409Z" fill="white"/>
<path fill-rule="evenodd" clip-rule="evenodd" d="M8.98321 32.7946C8.97303 32.7675 8.96625 32.7369 8.93911 32.6535C8.89909 32.7724 8.89909 32.7724 8.89163 32.7946L8.63587 33.5421H9.24643L8.98321 32.7946ZM9.50287 34.3738C9.48794 34.2896 9.46148 34.1812 9.43435 34.1081L9.3353 33.8328H8.547L8.44863 34.1081C8.40385 34.2291 8.39435 34.2667 8.37468 34.3738H7.97035C8.00766 34.3049 8.05651 34.1916 8.10128 34.0755L8.64333 32.618C8.69014 32.4914 8.70981 32.4289 8.72202 32.3628H9.15078C9.16299 32.424 9.17791 32.4636 9.23422 32.618L9.78101 34.0755C9.84275 34.2368 9.8726 34.3077 9.9072 34.3738H9.50287Z" fill="white"/>
<path fill-rule="evenodd" clip-rule="evenodd" d="M11.62 34.391C11.5318 34.3778 11.4449 34.3737 11.2699 34.3737H10.5413C10.4029 34.3737 10.3167 34.3757 10.2279 34.3806C10.2428 34.2874 10.2482 34.1943 10.2482 34.0475V32.7368C10.2482 32.5622 10.2428 32.4711 10.2279 32.3627H10.6003C10.5854 32.4663 10.5806 32.5504 10.5806 32.734V34.0677H11.2699C11.4375 34.0677 11.5168 34.0621 11.62 34.0503V34.391Z" fill="white"/>
<path fill-rule="evenodd" clip-rule="evenodd" d="M13.739 32.7946C13.7288 32.7675 13.7221 32.7369 13.6949 32.6535C13.6549 32.7724 13.6549 32.7724 13.6474 32.7946L13.3917 33.5421H14.0022L13.739 32.7946ZM14.2587 34.3738C14.2438 34.2896 14.2166 34.1812 14.1902 34.1081L14.0911 33.8328H13.3028L13.2044 34.1081C13.1597 34.2291 13.1502 34.2667 13.1305 34.3738H12.7262C12.7635 34.3049 12.8123 34.1916 12.8571 34.0755L13.3991 32.618C13.446 32.4914 13.4656 32.4289 13.4778 32.3628H13.9066C13.9188 32.424 13.9337 32.4636 13.99 32.618L14.5368 34.0755C14.5986 34.2368 14.6284 34.3077 14.663 34.3738H14.2587Z" fill="white"/>
<path fill-rule="evenodd" clip-rule="evenodd" d="M16.6689 32.3627C16.6547 32.4663 16.6492 32.5428 16.6492 32.686V34.0475C16.6492 34.1943 16.6547 34.2666 16.6689 34.3737H16.3019C16.3168 34.2749 16.3216 34.1963 16.3216 34.0475V33.4766H15.3311V34.0475C15.3311 34.1943 15.3365 34.2694 15.3508 34.3737H14.9838C14.9987 34.277 15.0034 34.1963 15.0034 34.0475V32.6888C15.0034 32.54 14.9987 32.4621 14.9838 32.3627H15.3508C15.3365 32.4691 15.3311 32.5518 15.3311 32.686V33.1735H16.3216V32.6888C16.3216 32.5449 16.3168 32.4538 16.3019 32.3627H16.6689Z" fill="white"/>
<path fill-rule="evenodd" clip-rule="evenodd" d="M18.5693 33.3629C18.5693 33.1084 18.5001 32.9033 18.3746 32.7746C18.2735 32.6738 18.1433 32.6209 17.9954 32.6209C17.6406 32.6209 17.4167 32.9088 17.4167 33.3657C17.4167 33.6181 17.488 33.8302 17.6162 33.9609C17.7173 34.0624 17.8475 34.1153 17.9981 34.1153C18.3502 34.1153 18.5693 33.8274 18.5693 33.3629ZM18.6385 32.575C18.8183 32.7593 18.9146 33.0347 18.9146 33.3629C18.9146 34.0019 18.5524 34.4164 17.9927 34.4164C17.4337 34.4164 17.0741 34.0047 17.0741 33.3629C17.0741 33.0368 17.1725 32.7572 17.355 32.575C17.5246 32.4033 17.7295 32.3226 17.99 32.3226C18.2613 32.3226 18.471 32.4033 18.6385 32.575Z" fill="white"/>
<path fill-rule="evenodd" clip-rule="evenodd" d="M20.1643 33.2393C20.2552 33.2393 20.3414 33.2067 20.3984 33.1482C20.4499 33.0954 20.4771 33.0224 20.4771 32.9264C20.4771 32.7442 20.376 32.6504 20.1738 32.6504H19.6691V33.2393H20.1643ZM20.5734 34.3735C20.568 34.3123 20.5266 34.1836 20.4452 33.9695C20.3122 33.6204 20.2261 33.5272 20.0361 33.5272H19.6691V34.0418C19.6691 34.1941 19.6738 34.2747 19.6888 34.3735H19.3217C19.3367 34.2671 19.3414 34.1989 19.3414 34.0446V32.6837C19.3414 32.5502 19.3367 32.4737 19.3217 32.3555C19.4249 32.3604 19.5015 32.3625 19.6372 32.3625H20.2281C20.6026 32.3625 20.817 32.5551 20.817 32.8882C20.817 33.0502 20.7749 33.1761 20.6914 33.2644C20.6222 33.3381 20.5585 33.3701 20.418 33.4111C20.5734 33.4612 20.6202 33.5321 20.8638 34.1231C20.8834 34.1683 20.9452 34.3046 20.9798 34.3735H20.5734Z" fill="white"/>
<path fill-rule="evenodd" clip-rule="evenodd" d="M22.1883 33.2393C22.2792 33.2393 22.3653 33.2067 22.4223 33.1482C22.4739 33.0954 22.501 33.0224 22.501 32.9264C22.501 32.7442 22.3999 32.6504 22.1978 32.6504H21.693V33.2393H22.1883ZM22.5974 34.3735C22.5919 34.3123 22.5505 34.1836 22.4691 33.9695C22.3362 33.6204 22.25 33.5272 22.0601 33.5272H21.693V34.0418C21.693 34.1941 21.6978 34.2747 21.7127 34.3735H21.3457C21.3606 34.2671 21.3654 34.1989 21.3654 34.0446V32.6837C21.3654 32.5502 21.3606 32.4737 21.3457 32.3555C21.4488 32.3604 21.5255 32.3625 21.6612 32.3625H22.2521C22.6265 32.3625 22.8409 32.5551 22.8409 32.8882C22.8409 33.0502 22.7988 33.1761 22.7154 33.2644C22.6462 33.3381 22.5824 33.3701 22.442 33.4111C22.5974 33.4612 22.6442 33.5321 22.8877 34.1231C22.9074 34.1683 22.9691 34.3046 23.0037 34.3735H22.5974Z" fill="white"/>
<path fill-rule="evenodd" clip-rule="evenodd" d="M24.8012 33.3629C24.8012 33.1084 24.732 32.9033 24.6065 32.7746C24.5054 32.6738 24.3751 32.6209 24.2272 32.6209C23.8724 32.6209 23.6479 32.9088 23.6479 33.3657C23.6479 33.6181 23.7198 33.8302 23.848 33.9609C23.9491 34.0624 24.0793 34.1153 24.2299 34.1153C24.582 34.1153 24.8012 33.8274 24.8012 33.3629ZM24.8704 32.575C25.0501 32.7593 25.1458 33.0347 25.1458 33.3629C25.1458 34.0019 24.7842 34.4164 24.2245 34.4164C23.6655 34.4164 23.306 34.0047 23.306 33.3629C23.306 33.0368 23.4043 32.7572 23.5868 32.575C23.7564 32.4033 23.9613 32.3226 24.2218 32.3226C24.4932 32.3226 24.7028 32.4033 24.8704 32.575Z" fill="white"/>
<path fill-rule="evenodd" clip-rule="evenodd" d="M26.8427 34.0875H27.3725C27.5916 34.0875 27.7151 33.9769 27.7151 33.7725C27.7151 33.6709 27.69 33.6028 27.6357 33.552C27.5747 33.4964 27.4804 33.4665 27.3671 33.4665H26.8427V34.0875ZM27.3549 33.1863C27.5421 33.1863 27.6534 33.0827 27.6534 32.9109C27.6534 32.8295 27.6283 32.7621 27.5889 32.7239C27.5353 32.6738 27.4512 32.646 27.3522 32.646H26.8427V33.1863H27.3549ZM26.8108 34.3732C26.6676 34.3732 26.5964 34.3753 26.4953 34.3809C26.5123 34.2752 26.5177 34.2015 26.5177 34.0402V32.6682C26.5177 32.5521 26.5103 32.4617 26.4974 32.3581C26.6012 32.363 26.6405 32.363 26.8081 32.363H27.3895C27.7714 32.363 27.9858 32.5396 27.9858 32.856C27.9858 33.009 27.9417 33.123 27.8474 33.2113C27.7938 33.2641 27.749 33.2878 27.6534 33.3177C27.7789 33.3455 27.8352 33.3705 27.9023 33.4338C28.0027 33.5298 28.055 33.6556 28.055 33.8197C28.055 34.1737 27.8257 34.3732 27.4166 34.3732H26.8108Z" fill="white"/>
<path fill-rule="evenodd" clip-rule="evenodd" d="M29.3373 32.7946C29.3271 32.7675 29.3203 32.7369 29.2932 32.6535C29.2532 32.7724 29.2532 32.7724 29.2457 32.7946L28.99 33.5421H29.6005L29.3373 32.7946ZM29.857 34.3738C29.842 34.2896 29.8156 34.1812 29.7884 34.1081L29.6894 33.8328H28.9011L28.8027 34.1081C28.7579 34.2291 28.7485 34.2667 28.7288 34.3738H28.3244C28.3618 34.3049 28.4106 34.1916 28.4554 34.0755L28.9974 32.618C29.0442 32.4914 29.0639 32.4289 29.0761 32.3628H29.5049C29.5171 32.424 29.532 32.4636 29.5883 32.618L30.1351 34.0755C30.1968 34.2368 30.2267 34.3077 30.2613 34.3738H29.857Z" fill="white"/>
<path fill-rule="evenodd" clip-rule="evenodd" d="M31.8658 34.3734C31.8237 34.2872 31.7796 34.2142 31.7084 34.1029L31.0727 33.1204C31.0259 33.0453 30.9642 32.9368 30.9045 32.8179C30.9072 32.8527 30.9072 32.8527 30.9147 32.9465C30.9174 32.9945 30.9221 33.1085 30.9221 33.1663V33.9944C30.9221 34.1634 30.9296 34.2823 30.9418 34.3734H30.5822C30.5945 34.29 30.6019 34.1634 30.6019 33.9917V32.6886C30.6019 32.5578 30.5972 32.4667 30.5822 32.3624H30.9662C30.9886 32.4257 31.0327 32.5022 31.1168 32.6308L31.7403 33.5932C31.7993 33.6836 31.878 33.815 31.9323 33.9166C31.9221 33.8171 31.9153 33.6655 31.9153 33.5598V32.7115C31.9153 32.5627 31.9099 32.4591 31.895 32.3624H32.2552C32.2403 32.4639 32.2355 32.5578 32.2355 32.7115V34.0473C32.2355 34.1884 32.2403 34.2844 32.2552 34.3734H31.8658Z" fill="white"/>
<path fill-rule="evenodd" clip-rule="evenodd" d="M34.3998 33.7595C34.353 33.9417 34.3082 34.0397 34.2343 34.1385C34.0939 34.3151 33.8578 34.4131 33.562 34.4131C33.2934 34.4131 33.079 34.3297 32.929 34.1711C32.7567 33.9869 32.6604 33.7011 32.6604 33.3777C32.6604 33.0454 32.7635 32.7519 32.9487 32.5621C33.0966 32.4084 33.3178 32.3229 33.5647 32.3229C33.7567 32.3229 33.9019 32.3604 34.0376 32.4439C34.1481 32.5148 34.237 32.608 34.2987 32.7192C34.3286 32.7721 34.3456 32.818 34.3747 32.9132L34.0321 32.9939C33.9982 32.8833 33.9758 32.8354 33.927 32.7769C33.8429 32.6733 33.7201 32.6205 33.5667 32.6205C33.2174 32.6205 33.005 32.9014 33.005 33.3659C33.005 33.8276 33.2221 34.1155 33.5667 34.1155C33.7391 34.1155 33.8876 34.0474 33.9663 33.9285C34.0077 33.8652 34.0274 33.8123 34.0471 33.6962L34.3998 33.7595Z" fill="white"/>
<path fill-rule="evenodd" clip-rule="evenodd" d="M35.6623 32.7946C35.6521 32.7675 35.6453 32.7369 35.6182 32.6535C35.5781 32.7724 35.5781 32.7724 35.5707 32.7946L35.3149 33.5421H35.9255L35.6623 32.7946ZM36.1819 34.3738C36.167 34.2896 36.1405 34.1812 36.1134 34.1081L36.0144 33.8328H35.2261L35.1277 34.1081C35.0829 34.2291 35.0734 34.2667 35.0537 34.3738H34.6494C34.6867 34.3049 34.7356 34.1916 34.7803 34.0755L35.3224 32.618C35.3692 32.4914 35.3889 32.4289 35.4011 32.3628H35.8298C35.842 32.424 35.857 32.4636 35.9133 32.618L36.4601 34.0755C36.5218 34.2368 36.5517 34.3077 36.5863 34.3738H36.1819Z" fill="white"/>
<path fill-rule="evenodd" clip-rule="evenodd" d="M37.7498 33.2393C37.8407 33.2393 37.9269 33.2067 37.9838 33.1482C38.0354 33.0954 38.0625 33.0224 38.0625 32.9264C38.0625 32.7442 37.9615 32.6504 37.7593 32.6504H37.2546V33.2393H37.7498ZM38.1589 34.3735C38.1534 34.3123 38.1121 34.1836 38.0306 33.9695C37.8977 33.6204 37.8115 33.5272 37.6216 33.5272H37.2546V34.0418C37.2546 34.1941 37.2593 34.2747 37.2742 34.3735H36.9072C36.9221 34.2671 36.9269 34.1989 36.9269 34.0446V32.6837C36.9269 32.5502 36.9221 32.4737 36.9072 32.3555C37.0103 32.3604 37.087 32.3625 37.2227 32.3625H37.8136C38.188 32.3625 38.4024 32.5551 38.4024 32.8882C38.4024 33.0502 38.3604 33.1761 38.2769 33.2644C38.2077 33.3381 38.1439 33.3701 38.0035 33.4111C38.1589 33.4612 38.2057 33.5321 38.4492 34.1231C38.4689 34.1683 38.5306 34.3046 38.5652 34.3735H38.1589Z" fill="white"/>
<path fill-rule="evenodd" clip-rule="evenodd" d="M39.3057 32.3627C39.2908 32.4593 39.286 32.5372 39.286 32.6888V34.0475C39.286 34.1963 39.2908 34.277 39.3057 34.3737H38.9312C38.9462 34.277 38.9509 34.1963 38.9509 34.0475V32.6888C38.9509 32.5323 38.9462 32.4642 38.9312 32.3627H39.3057Z" fill="white"/>
<path fill-rule="evenodd" clip-rule="evenodd" d="M41.2058 33.3629C41.2058 33.1084 41.1366 32.9033 41.0111 32.7746C40.91 32.6738 40.7797 32.6209 40.6318 32.6209C40.277 32.6209 40.0532 32.9088 40.0532 33.3657C40.0532 33.6181 40.1244 33.8302 40.2526 33.9609C40.3537 34.0624 40.484 34.1153 40.6346 34.1153C40.9867 34.1153 41.2058 33.8274 41.2058 33.3629ZM41.275 32.575C41.4547 32.7593 41.5511 33.0347 41.5511 33.3629C41.5511 34.0019 41.1888 34.4164 40.6291 34.4164C40.0701 34.4164 39.7106 34.0047 39.7106 33.3629C39.7106 33.0368 39.8089 32.7572 39.9914 32.575C40.161 32.4033 40.3659 32.3226 40.6264 32.3226C40.8978 32.3226 41.1074 32.4033 41.275 32.575Z" fill="white"/>
</svg>
