<svg width="215" height="210" viewBox="0 0 215 210" fill="none" xmlns="http://www.w3.org/2000/svg">
<path d="M187.188 182.186L193.692 188.69" stroke="black" stroke-width="2" stroke-linecap="round" stroke-linejoin="round"/>
<path d="M198.871 193.867L205.376 200.372" stroke="black" stroke-width="2" stroke-linecap="round" stroke-linejoin="round"/>
<path d="M205.376 182.186L198.871 188.69" stroke="black" stroke-width="2" stroke-linecap="round" stroke-linejoin="round"/>
<path d="M193.692 193.867L187.188 200.372" stroke="black" stroke-width="2" stroke-linecap="round" stroke-linejoin="round"/>
<path d="M175.402 9.18555L181.907 15.6901" stroke="black" stroke-width="2" stroke-linecap="round" stroke-linejoin="round"/>
<path d="M187.086 20.8672L193.59 27.3717" stroke="black" stroke-width="2" stroke-linecap="round" stroke-linejoin="round"/>
<path d="M193.59 9.18558L187.086 15.69" stroke="black" stroke-width="2" stroke-linecap="round" stroke-linejoin="round"/>
<path d="M181.907 20.8672L175.402 27.3717" stroke="black" stroke-width="2" stroke-linecap="round" stroke-linejoin="round"/>
<path d="M9.1875 61.1855L15.692 67.6901" stroke="black" stroke-width="2" stroke-linecap="round" stroke-linejoin="round"/>
<path d="M20.8711 72.8672L27.3756 79.3717" stroke="black" stroke-width="2" stroke-linecap="round" stroke-linejoin="round"/>
<path d="M27.3756 61.1856L20.8711 67.69" stroke="black" stroke-width="2" stroke-linecap="round" stroke-linejoin="round"/>
<path d="M15.692 72.8672L9.18754 79.3717" stroke="black" stroke-width="2" stroke-linecap="round" stroke-linejoin="round"/>
<circle cx="49.4531" cy="24.4824" r="4" fill="#FFDD35" stroke="black" stroke-width="2"/>
<circle cx="172.453" cy="184.482" r="4" fill="#FFDD35" stroke="black" stroke-width="2"/>
<circle cx="180.453" cy="70.4824" r="4" fill="#FFDD35" stroke="black" stroke-width="2"/>
<circle cx="115.5" cy="104.5" r="91.5" fill="#D3EAFF"/>
<path d="M89.7487 70.3105H141.25C147.904 70.3105 153.307 76.4432 153.307 83.9944V132.132C153.307 139.683 147.904 145.816 141.25 145.816H89.7487C83.0951 145.816 77.6914 139.683 77.6914 132.132V83.9944C77.6914 76.4432 83.0951 70.3105 89.7487 70.3105Z" fill="#275BA7"/>
<path d="M89.7504 73.6462H141.252C146.287 73.6462 150.373 78.2839 150.373 83.9982V132.139C150.373 137.853 146.287 142.491 141.252 142.491H89.7504C84.7153 142.491 80.6289 137.853 80.6289 132.139V83.9946C80.6289 78.2803 84.7153 73.6426 89.7504 73.6426V73.6462Z" fill="white"/>
<path d="M151.839 90.8293H79.1593C78.3484 90.8293 77.6914 90.0837 77.6914 89.1634V83.9983C77.6914 76.4507 83.1015 70.3145 89.7487 70.3145H141.25C147.9 70.3145 153.307 76.4544 153.307 83.9983V89.1634C153.307 90.0837 152.65 90.8293 151.839 90.8293Z" fill="#275BA7"/>
<path d="M80.6289 87.4977H150.373V83.9985C150.373 78.2914 146.28 73.6465 141.252 73.6465H89.7504C84.7217 73.6465 80.6289 78.2914 80.6289 83.9985V87.4977Z" fill="#00AEE8"/>
<path d="M92.787 82.4892C91.0179 82.4892 89.582 80.8596 89.582 78.8518V66.8229C89.582 64.8151 91.0179 63.1855 92.787 63.1855C94.5562 63.1855 95.9921 64.8151 95.9921 66.8229V78.8518C95.9921 80.8596 94.5562 82.4892 92.787 82.4892Z" fill="#275BA7"/>
<path d="M115.498 82.4892C113.729 82.4892 112.293 80.8596 112.293 78.8518V66.8229C112.293 64.8151 113.729 63.1855 115.498 63.1855C117.267 63.1855 118.703 64.8151 118.703 66.8229V78.8518C118.703 80.8596 117.267 82.4892 115.498 82.4892Z" fill="#275BA7"/>
<path d="M138.213 82.4892C136.444 82.4892 135.008 80.8596 135.008 78.8518V66.8229C135.008 64.8151 136.444 63.1855 138.213 63.1855C139.982 63.1855 141.418 64.8151 141.418 66.8229V78.8518C141.418 80.8596 139.982 82.4892 138.213 82.4892Z" fill="#275BA7"/>
<path d="M89.2936 131L102.086 117.757C102.851 116.91 103.507 116.144 104.054 115.461C104.628 114.778 105.051 114.108 105.325 113.452C105.625 112.769 105.776 112.044 105.776 111.279C105.776 110.842 105.694 110.404 105.53 109.967C105.366 109.53 105.12 109.147 104.792 108.819C104.464 108.464 104.054 108.19 103.562 107.999C103.07 107.78 102.496 107.671 101.84 107.671C100.965 107.671 100.186 107.89 99.5026 108.327C98.8466 108.764 98.341 109.379 97.9856 110.172C97.6576 110.965 97.4936 111.88 97.4936 112.919H90.6876C90.6876 110.869 91.1113 108.997 91.9586 107.302C92.806 105.607 94.077 104.254 95.7716 103.243C97.4936 102.232 99.5846 101.726 102.045 101.726C103.821 101.726 105.393 101.999 106.76 102.546C108.126 103.065 109.261 103.776 110.163 104.678C111.092 105.553 111.789 106.523 112.254 107.589C112.718 108.655 112.951 109.735 112.951 110.828C112.951 112.386 112.568 113.821 111.803 115.133C111.037 116.418 110.04 117.593 108.81 118.659L102.127 124.645H113.607V131H89.2936ZM123.703 116.65C123.703 117.989 123.826 119.219 124.072 120.34C124.318 121.433 124.673 122.376 125.138 123.169C125.603 123.934 126.149 124.536 126.778 124.973C127.434 125.383 128.158 125.588 128.951 125.588C129.744 125.588 130.454 125.383 131.083 124.973C131.739 124.536 132.299 123.934 132.764 123.169C133.229 122.376 133.584 121.433 133.83 120.34C134.076 119.219 134.199 117.989 134.199 116.65C134.199 115.311 134.076 114.094 133.83 113.001C133.584 111.88 133.229 110.937 132.764 110.172C132.299 109.379 131.739 108.778 131.083 108.368C130.454 107.931 129.744 107.712 128.951 107.712C128.158 107.712 127.434 107.931 126.778 108.368C126.149 108.778 125.603 109.379 125.138 110.172C124.673 110.937 124.318 111.88 124.072 113.001C123.826 114.094 123.703 115.311 123.703 116.65ZM117.02 116.65C117.02 113.534 117.512 110.869 118.496 108.655C119.507 106.441 120.915 104.746 122.719 103.571C124.523 102.368 126.6 101.767 128.951 101.767C131.411 101.767 133.529 102.368 135.306 103.571C137.083 104.746 138.449 106.441 139.406 108.655C140.39 110.869 140.882 113.534 140.882 116.65C140.882 119.766 140.39 122.431 139.406 124.645C138.449 126.859 137.083 128.567 135.306 129.77C133.529 130.945 131.411 131.533 128.951 131.533C126.6 131.533 124.523 130.945 122.719 129.77C120.915 128.567 119.507 126.859 118.496 124.645C117.512 122.431 117.02 119.766 117.02 116.65Z" fill="#2C9AFF"/>
</svg>
