<svg width="235" height="230" viewBox="0 0 235 230" fill="none" xmlns="http://www.w3.org/2000/svg">
<path d="M197.188 192.186L203.692 198.69" stroke="black" stroke-width="2" stroke-linecap="round" stroke-linejoin="round"/>
<path d="M208.871 203.867L215.376 210.372" stroke="black" stroke-width="2" stroke-linecap="round" stroke-linejoin="round"/>
<path d="M215.376 192.186L208.871 198.69" stroke="black" stroke-width="2" stroke-linecap="round" stroke-linejoin="round"/>
<path d="M203.692 203.867L197.188 210.372" stroke="black" stroke-width="2" stroke-linecap="round" stroke-linejoin="round"/>
<path d="M185.402 19.1855L191.907 25.6901" stroke="black" stroke-width="2" stroke-linecap="round" stroke-linejoin="round"/>
<path d="M197.086 30.8672L203.59 37.3717" stroke="black" stroke-width="2" stroke-linecap="round" stroke-linejoin="round"/>
<path d="M203.59 19.1856L197.086 25.69" stroke="black" stroke-width="2" stroke-linecap="round" stroke-linejoin="round"/>
<path d="M191.907 30.8672L185.402 37.3717" stroke="black" stroke-width="2" stroke-linecap="round" stroke-linejoin="round"/>
<path d="M19.1875 71.1855L25.692 77.6901" stroke="black" stroke-width="2" stroke-linecap="round" stroke-linejoin="round"/>
<path d="M30.8711 82.8672L37.3756 89.3717" stroke="black" stroke-width="2" stroke-linecap="round" stroke-linejoin="round"/>
<path d="M37.3756 71.1856L30.8711 77.69" stroke="black" stroke-width="2" stroke-linecap="round" stroke-linejoin="round"/>
<path d="M25.692 82.8672L19.1875 89.3717" stroke="black" stroke-width="2" stroke-linecap="round" stroke-linejoin="round"/>
<circle cx="59.4531" cy="34.4824" r="4" fill="#FFDD35" stroke="black" stroke-width="2"/>
<circle cx="182.453" cy="194.482" r="4" fill="#FFDD35" stroke="black" stroke-width="2"/>
<circle cx="190.453" cy="80.4824" r="4" fill="#FFDD35" stroke="black" stroke-width="2"/>
<circle cx="125.5" cy="114.5" r="91.5" fill="#D3EAFF"/>
<path d="M99.7487 80.3105H151.25C157.904 80.3105 163.307 86.4432 163.307 93.9944V142.132C163.307 149.683 157.904 155.816 151.25 155.816H99.7487C93.0951 155.816 87.6914 149.683 87.6914 142.132V93.9944C87.6914 86.4432 93.0951 80.3105 99.7487 80.3105Z" fill="#275BA7"/>
<path d="M99.7504 83.6462H151.252C156.287 83.6462 160.373 88.2839 160.373 93.9982V142.139C160.373 147.853 156.287 152.491 151.252 152.491H99.7504C94.7153 152.491 90.6289 147.853 90.6289 142.139V93.9946C90.6289 88.2803 94.7153 83.6426 99.7504 83.6426V83.6462Z" fill="white"/>
<path d="M161.839 100.829H89.1593C88.3484 100.829 87.6914 100.084 87.6914 99.1634V93.9983C87.6914 86.4507 93.1015 80.3145 99.7487 80.3145H151.25C157.9 80.3145 163.307 86.4544 163.307 93.9983V99.1634C163.307 100.084 162.65 100.829 161.839 100.829Z" fill="#275BA7"/>
<path d="M90.6289 97.4977H160.373V93.9985C160.373 88.2914 156.28 83.6465 151.252 83.6465H99.7504C94.7217 83.6465 90.6289 88.2914 90.6289 93.9985V97.4977Z" fill="#00AEE8"/>
<path d="M102.787 92.4892C101.018 92.4892 99.582 90.8596 99.582 88.8518V76.8229C99.582 74.8151 101.018 73.1855 102.787 73.1855C104.556 73.1855 105.992 74.8151 105.992 76.8229V88.8518C105.992 90.8596 104.556 92.4892 102.787 92.4892Z" fill="#275BA7"/>
<path d="M125.498 92.4892C123.729 92.4892 122.293 90.8596 122.293 88.8518V76.8229C122.293 74.8151 123.729 73.1855 125.498 73.1855C127.267 73.1855 128.703 74.8151 128.703 76.8229V88.8518C128.703 90.8596 127.267 92.4892 125.498 92.4892Z" fill="#275BA7"/>
<path d="M148.213 92.4892C146.444 92.4892 145.008 90.8596 145.008 88.8518V76.8229C145.008 74.8151 146.444 73.1855 148.213 73.1855C149.982 73.1855 151.418 74.8151 151.418 76.8229V88.8518C151.418 90.8596 149.982 92.4892 148.213 92.4892Z" fill="#275BA7"/>
<path d="M99.2936 141L112.086 127.757C112.851 126.91 113.507 126.144 114.054 125.461C114.628 124.778 115.051 124.108 115.325 123.452C115.625 122.769 115.776 122.044 115.776 121.279C115.776 120.842 115.694 120.404 115.53 119.967C115.366 119.53 115.12 119.147 114.792 118.819C114.464 118.464 114.054 118.19 113.562 117.999C113.07 117.78 112.496 117.671 111.84 117.671C110.965 117.671 110.186 117.89 109.503 118.327C108.847 118.764 108.341 119.379 107.986 120.172C107.658 120.965 107.494 121.88 107.494 122.919H100.688C100.688 120.869 101.111 118.997 101.959 117.302C102.806 115.607 104.077 114.254 105.772 113.243C107.494 112.232 109.585 111.726 112.045 111.726C113.821 111.726 115.393 111.999 116.76 112.546C118.126 113.065 119.261 113.776 120.163 114.678C121.092 115.553 121.789 116.523 122.254 117.589C122.718 118.655 122.951 119.735 122.951 120.828C122.951 122.386 122.568 123.821 121.803 125.133C121.037 126.418 120.04 127.593 118.81 128.659L112.127 134.645H123.607V141H99.2936ZM133.703 126.65C133.703 127.989 133.826 129.219 134.072 130.34C134.318 131.433 134.673 132.376 135.138 133.169C135.603 133.934 136.149 134.536 136.778 134.973C137.434 135.383 138.158 135.588 138.951 135.588C139.744 135.588 140.454 135.383 141.083 134.973C141.739 134.536 142.299 133.934 142.764 133.169C143.229 132.376 143.584 131.433 143.83 130.34C144.076 129.219 144.199 127.989 144.199 126.65C144.199 125.311 144.076 124.094 143.83 123.001C143.584 121.88 143.229 120.937 142.764 120.172C142.299 119.379 141.739 118.778 141.083 118.368C140.454 117.931 139.744 117.712 138.951 117.712C138.158 117.712 137.434 117.931 136.778 118.368C136.149 118.778 135.603 119.379 135.138 120.172C134.673 120.937 134.318 121.88 134.072 123.001C133.826 124.094 133.703 125.311 133.703 126.65ZM127.02 126.65C127.02 123.534 127.512 120.869 128.496 118.655C129.507 116.441 130.915 114.746 132.719 113.571C134.523 112.368 136.6 111.767 138.951 111.767C141.411 111.767 143.529 112.368 145.306 113.571C147.083 114.746 148.449 116.441 149.406 118.655C150.39 120.869 150.882 123.534 150.882 126.65C150.882 129.766 150.39 132.431 149.406 134.645C148.449 136.859 147.083 138.567 145.306 139.77C143.529 140.945 141.411 141.533 138.951 141.533C136.6 141.533 134.523 140.945 132.719 139.77C130.915 138.567 129.507 136.859 128.496 134.645C127.512 132.431 127.02 129.766 127.02 126.65Z" fill="#2C9AFF"/>
</svg>
