<svg width="20" height="20" viewBox="0 0 20 20" fill="none" xmlns="http://www.w3.org/2000/svg">
<g clip-path="url(#clip0_1073_7262)">
<path fill-rule="evenodd" clip-rule="evenodd" d="M19.9199 18.8987C19.9199 19.4778 19.4503 19.9473 18.8713 19.9473L14.0296 19.9473V12.5895H16.4994L16.8692 9.72208H14.0296V7.89125C14.0296 7.06104 14.2602 6.49527 15.4508 6.49527L16.9692 6.4946V3.92997C16.7065 3.89501 15.8052 3.81694 14.7566 3.81694C12.5673 3.81694 11.0685 5.15324 11.0685 7.60736V9.72208H8.59243V12.5895H11.0685V19.9473L1.96856 19.9473C1.38928 19.9473 0.919922 19.4778 0.919922 18.8987V1.9959C0.919922 1.4167 1.38928 0.947266 1.96856 0.947266H18.8713C19.4503 0.947266 19.9199 1.4167 19.9199 1.9959V18.8987Z" fill="white"/>
</g>
<defs>
<clipPath id="clip0_1073_7262">
<rect width="19" height="19" fill="white" transform="translate(0.919922 0.947266)"/>
</clipPath>
</defs>
</svg>
