<svg width="28" height="21" viewBox="0 0 28 21" fill="none" xmlns="http://www.w3.org/2000/svg">
<g clip-path="url(#clip0_1073_7267)">
<path fill-rule="evenodd" clip-rule="evenodd" d="M25.0399 1.51795C26.205 1.83197 27.1226 2.75725 27.434 3.93215C27.9999 6.06181 27.9999 10.505 27.9999 10.505C27.9999 10.505 27.9999 14.948 27.434 17.0779C27.1226 18.2526 26.205 19.1779 25.0399 19.492C22.9281 20.0626 14.4599 20.0626 14.4599 20.0626C14.4599 20.0626 5.99176 20.0626 3.87998 19.492C2.71482 19.1779 1.79717 18.2527 1.48583 17.0778C0.919922 14.9481 0.919922 10.505 0.919922 10.505C0.919922 10.505 0.919922 6.06181 1.48583 3.93215C1.79717 2.75725 2.71482 1.83197 3.87998 1.51795C5.99176 0.947266 14.4599 0.947266 14.4599 0.947266C14.4599 0.947266 22.9281 0.947266 25.0399 1.51795ZM18.7681 10.5051L11.6903 14.539V6.47087L18.7681 10.5051Z" fill="white"/>
</g>
<defs>
<clipPath id="clip0_1073_7267">
<rect width="27.08" height="19.1153" fill="white" transform="translate(0.919922 0.947266)"/>
</clipPath>
</defs>
</svg>
