<svg width="27" height="27" viewBox="0 0 27 27" fill="none" xmlns="http://www.w3.org/2000/svg">
<path d="M3.17578 11.0918H23.5134V23.3218C23.5134 24.8431 22.2786 26.0768 20.7583 26.0768H5.93081C4.40943 26.0768 3.17578 24.842 3.17578 23.3218V11.0918Z" fill="#006FB9"/>
<path d="M20.7576 26.598H5.93124C4.12552 26.598 2.65625 25.1287 2.65625 23.323V11.0931C2.65625 10.8064 2.88848 10.5742 3.17508 10.5742H23.5127C23.7993 10.5742 24.0315 10.8064 24.0315 11.0931V23.323C24.0315 25.1287 22.5622 26.598 20.7565 26.598H20.7576ZM3.69505 11.6119V23.323C3.69505 24.5567 4.69873 25.5592 5.93124 25.5592H20.7576C21.9901 25.5592 22.9938 24.5555 22.9938 23.323V11.6119H3.69505Z" fill="#275BA7"/>
<path d="M25.6537 6.81055H1.03516V11.0926H25.6537V6.81055Z" fill="#00AEE8"/>
<path d="M25.653 11.6116H1.03446C0.747854 11.6116 0.515625 11.3793 0.515625 11.0927V6.8118C0.515625 6.5252 0.747854 6.29297 1.03446 6.29297H25.653C25.9396 6.29297 26.1718 6.5252 26.1718 6.8118V11.0927C26.1718 11.3793 25.9396 11.6116 25.653 11.6116ZM1.55329 10.5728H25.1341V7.3295H1.55329V10.5728Z" fill="#275BA7"/>
<path d="M11.2756 7.28129C9.93322 7.28129 8.24418 7.16574 7.47386 6.64124C6.78397 6.17225 6.31838 5.4631 6.16318 4.64407C6.00798 3.82504 6.17904 2.99468 6.64803 2.30479C7.61546 0.881966 9.56052 0.5104 10.9845 1.47896C12.2861 2.3637 13.4676 6.11674 13.599 6.54155C13.6455 6.69222 13.6206 6.85534 13.5322 6.98562C13.4438 7.11589 13.3011 7.19859 13.1436 7.21105C12.9624 7.22465 12.2023 7.28015 11.2767 7.28015L11.2756 7.28129ZM9.232 1.97854C8.56477 1.97854 7.90886 2.298 7.50671 2.88933C6.861 3.83864 7.10795 5.13685 8.05726 5.78256C8.71316 6.22776 10.8451 6.2878 12.3994 6.21643C11.8941 4.74489 11.0547 2.78284 10.3999 2.33764C10.042 2.09409 9.63528 1.97741 9.232 1.97741V1.97854Z" fill="#275BA7"/>
<path d="M15.4116 7.28161C14.4861 7.28161 13.726 7.2261 13.5448 7.21251C13.3873 7.20005 13.2446 7.11735 13.1562 6.98708C13.0678 6.8568 13.0429 6.69367 13.0894 6.54301C13.2196 6.1182 14.4023 2.36629 15.7039 1.48042C17.1267 0.512988 19.0718 0.883422 20.0404 2.30625C21.0078 3.72907 20.6374 5.67413 19.2145 6.6427C18.4442 7.16606 16.7552 7.28274 15.4128 7.28274L15.4116 7.28161ZM14.2879 6.21789C15.8433 6.28812 17.9752 6.22922 18.63 5.78402C19.5793 5.13831 19.8263 3.84009 19.1805 2.89079C18.5348 1.94148 17.2366 1.69452 16.2873 2.34023C15.6314 2.78657 14.7931 4.74748 14.2879 6.21902V6.21789Z" fill="#275BA7"/>
<path d="M15.217 6.81055H11.4707V26.0776H15.217V6.81055Z" fill="#FFE539"/>
<path d="M15.2182 26.5977H11.472C11.1854 26.5977 10.9531 26.3655 10.9531 26.0789V6.8118C10.9531 6.5252 11.1854 6.29297 11.472 6.29297H15.2182C15.5048 6.29297 15.737 6.5252 15.737 6.8118V26.0789C15.737 26.3655 15.5048 26.5977 15.2182 26.5977ZM11.9908 25.5589H14.6994V7.33064H11.9908V25.5589Z" fill="#275BA7"/>
</svg>
