<svg width="217" height="31" viewBox="0 0 217 31" fill="none" xmlns="http://www.w3.org/2000/svg">
<path fill-rule="evenodd" clip-rule="evenodd" d="M162.305 20.9624C162.305 22.8791 160.703 24.4333 158.728 24.4333C156.752 24.4333 155.151 22.8791 155.151 20.9624C155.151 19.048 156.752 17.4938 158.728 17.4938C160.703 17.4938 162.305 19.048 162.305 20.9624Z" fill="white"/>
<mask id="mask0_75_356" style="mask-type:alpha" maskUnits="userSpaceOnUse" x="41" y="0" width="112" height="31">
<path d="M41.9978 0.932068H152.21V30.0599H41.9978V0.932068Z" fill="white"/>
</mask>
<g mask="url(#mask0_75_356)">
<path fill-rule="evenodd" clip-rule="evenodd" d="M150.974 0.930908H43.2332C42.5508 0.930908 41.9978 1.46758 41.9978 2.13203V28.8611C41.9978 29.5256 42.5508 30.0599 43.2332 30.0599H150.974C151.657 30.0599 152.21 29.5256 152.21 28.8611V2.13203C152.21 1.46758 151.657 0.930908 150.974 0.930908Z" fill="white"/>
</g>
<mask id="mask1_75_356" style="mask-type:alpha" maskUnits="userSpaceOnUse" x="0" y="0" width="41" height="31">
<path d="M0.681427 0.932068H40.198V30.0599H0.681427V0.932068Z" fill="white"/>
</mask>
<g mask="url(#mask1_75_356)">
<path fill-rule="evenodd" clip-rule="evenodd" d="M38.9625 0.930908H1.91638C1.23402 0.930908 0.68095 1.46758 0.68095 2.13203V28.8611C0.68095 29.5256 1.23402 30.0599 1.91638 30.0599H38.9625C39.6449 30.0599 40.198 29.5256 40.198 28.8611V2.13203C40.198 1.46758 39.6449 0.930908 38.9625 0.930908Z" fill="white"/>
</g>
<path fill-rule="evenodd" clip-rule="evenodd" d="M78.0711 21.7336H78.0352H77.9993C75.5883 21.7336 73.9267 19.9307 73.9267 17.7399C73.9267 15.5514 75.5883 13.7462 77.9993 13.7462C78.0113 13.7462 78.0232 13.7462 78.0352 13.7462C78.0472 13.7462 78.0616 13.7462 78.0711 13.7462C80.4821 13.7462 82.1437 15.5514 82.1437 17.7399C82.1437 19.9307 80.4821 21.7336 78.0711 21.7336ZM78.0352 10.9606C74.0895 10.9606 70.8166 13.7183 70.8142 17.7399C70.8166 21.7615 74.0895 24.5192 78.0352 24.5192C81.9833 24.5192 85.2539 21.7615 85.2563 17.7399C85.2539 13.7183 81.9833 10.9606 78.0352 10.9606Z" fill="#245BA7"/>
<path fill-rule="evenodd" clip-rule="evenodd" d="M185.713 21.8154H185.679H185.643C183.304 21.8154 181.69 20.0637 181.69 17.9379C181.69 15.8121 183.304 14.0604 185.643 14.0604C185.655 14.0604 185.665 14.0627 185.679 14.0627C185.691 14.0627 185.703 14.0604 185.713 14.0604C188.054 14.0604 189.666 15.8121 189.666 17.9379C189.666 20.0637 188.054 21.8154 185.713 21.8154ZM185.679 11.3585C181.848 11.3585 178.671 14.0349 178.669 17.9379C178.671 21.8433 181.848 24.5197 185.679 24.5197C189.508 24.5197 192.685 21.8433 192.69 17.9379C192.685 14.0349 189.508 11.3585 185.679 11.3585Z" fill="white"/>
<path fill-rule="evenodd" clip-rule="evenodd" d="M67.7577 19.3447C66.5653 20.7317 64.772 21.6122 62.7681 21.6122C59.1767 21.6122 56.2677 18.7871 56.2677 15.3046C56.2677 11.822 59.1767 8.99691 62.7681 8.99691C64.7505 8.99691 66.5246 9.85884 67.717 11.2179L69.9771 9.29661C68.2078 7.33346 65.5837 6.09052 62.6579 6.09052C57.3259 6.09052 53.0019 10.2143 53.0019 15.3046C53.0019 20.3925 57.3259 24.5209 62.6579 24.5209C65.6052 24.5209 68.2437 23.2594 70.013 21.273L67.7577 19.3447Z" fill="#245BA7"/>
<path fill-rule="evenodd" clip-rule="evenodd" d="M109.326 21.7314H109.29H109.254C106.838 21.7314 105.174 19.9262 105.174 17.7308C105.174 15.5376 106.838 13.7324 109.254 13.7324H109.29H109.326C111.739 13.7324 113.406 15.5376 113.406 17.7308C113.406 19.9262 111.739 21.7314 109.326 21.7314ZM109.29 10.9422C105.337 10.9422 102.057 13.7324 102.057 17.7308V30.0463H105.174V23.3763C106.348 24.1081 107.767 24.5193 109.29 24.5193C113.241 24.5193 116.518 21.7593 116.521 17.7308C116.518 13.7046 113.241 10.9422 109.29 10.9422Z" fill="#245BA7"/>
<path fill-rule="evenodd" clip-rule="evenodd" d="M93.6945 21.7314H93.6586H93.6203C91.2069 21.7314 89.5429 19.9262 89.5429 17.7308C89.5429 15.5376 91.2069 13.7324 93.6203 13.7324H93.6586H93.6945C96.1079 13.7324 97.7719 15.5376 97.7719 17.7308C97.7719 19.9262 96.1079 21.7314 93.6945 21.7314ZM93.6586 10.9422C89.7057 10.9422 86.4256 13.7324 86.4256 17.7308V30.0463H89.5429V23.3763C90.7161 24.1081 92.1359 24.5193 93.6586 24.5193C97.6091 24.5193 100.887 21.7593 100.889 17.7308C100.887 13.7046 97.6091 10.9422 93.6586 10.9422Z" fill="#245BA7"/>
<path fill-rule="evenodd" clip-rule="evenodd" d="M120.43 16.384C120.43 15.1782 122.041 13.5334 124.196 13.5334C125.613 13.5334 127.498 14.5788 127.498 16.384H120.43ZM124.002 10.9429C120.339 10.9429 117.303 13.7053 117.301 17.7315C117.303 21.7577 120.339 24.52 124.002 24.52C126.207 24.52 128.53 23.8556 129.755 22.1782L127.919 20.4009C127.119 21.2954 125.901 21.8529 124.383 21.8529C121.979 21.8529 120.372 20.4822 120.372 18.5307H130.658C130.687 18.2705 130.704 18.0033 130.704 17.7315C130.699 13.7053 128.096 10.9429 124.002 10.9429Z" fill="#245BA7"/>
<path fill-rule="evenodd" clip-rule="evenodd" d="M134.988 17.7314V6.29401H131.871V17.7314C131.873 21.7158 135.082 24.4596 138.977 24.52V21.7297C136.612 21.6856 134.988 19.899 134.988 17.7314Z" fill="#245BA7"/>
<path fill-rule="evenodd" clip-rule="evenodd" d="M12.759 20.824C11.9042 20.824 11.2075 20.1502 11.2075 19.3208C11.2075 18.4914 11.9042 17.8177 12.759 17.8177C13.6137 17.8177 14.308 18.4914 14.308 19.3208C14.308 20.1502 13.6137 20.824 12.759 20.824ZM6.82123 16.8814C6.82123 16.0497 7.51557 15.3736 8.37031 15.3736C9.22506 15.3736 9.92178 16.0497 9.92178 16.8814C9.92178 17.7085 9.22506 18.3845 8.37031 18.3845C7.51557 18.3845 6.82123 17.7085 6.82123 16.8814ZM12.759 12.9342C13.6137 12.9342 14.308 13.6103 14.308 14.4397C14.308 15.2667 13.6137 15.9428 12.759 15.9428C11.9042 15.9428 11.2075 15.2667 11.2075 14.4397C11.2075 13.6103 11.9042 12.9342 12.759 12.9342ZM35.9879 15.4131H16.0894C16.1851 15.1041 16.2378 14.7765 16.2378 14.4397C16.2378 12.5764 14.6768 11.064 12.759 11.064C11.1213 11.064 9.747 12.1652 9.37829 13.6474C9.05985 13.5545 8.72227 13.5034 8.37031 13.5034C6.45252 13.5034 4.89147 15.0181 4.89147 16.8814C4.89147 18.7423 6.45252 20.2571 8.37031 20.2571C8.72227 20.2571 9.05985 20.2037 9.37829 20.1107C9.747 21.5906 11.1213 22.6965 12.759 22.6965C14.6768 22.6965 16.2378 21.1817 16.2378 19.3208C16.2378 18.9816 16.1851 18.654 16.0894 18.3497H29.5833V22.3991H31.1994V20.3756H32.7605V22.3991H34.3718V18.3497H35.9879V15.4131Z" fill="#245BA7"/>
<path fill-rule="evenodd" clip-rule="evenodd" d="M141.121 23.0653H141.279C141.464 23.0653 141.612 23.0049 141.612 22.8608C141.612 22.7331 141.516 22.6471 141.306 22.6471C141.217 22.6471 141.157 22.6564 141.121 22.6657V23.0653ZM141.114 23.8529H140.781V22.4613C140.913 22.4357 141.097 22.4194 141.332 22.4194C141.602 22.4194 141.725 22.4612 141.83 22.5217C141.909 22.5797 141.969 22.6913 141.969 22.826C141.969 22.9793 141.847 23.1001 141.672 23.1466V23.1652C141.813 23.2163 141.89 23.3162 141.933 23.5021C141.978 23.7158 142.005 23.7994 142.041 23.8529H141.681C141.636 23.7994 141.612 23.6763 141.569 23.5114C141.543 23.3603 141.454 23.293 141.27 23.293H141.114V23.8529ZM140.231 23.1234C140.231 23.7414 140.705 24.2339 141.349 24.2339C141.978 24.2339 142.44 23.7414 142.44 23.1303C142.44 22.5147 141.978 22.0129 141.339 22.0129C140.705 22.0129 140.231 22.5147 140.231 23.1234ZM142.807 23.1234C142.807 23.911 142.17 24.5313 141.339 24.5313C140.52 24.5313 139.864 23.911 139.864 23.1234C139.864 22.3521 140.52 21.7341 141.339 21.7341C142.17 21.7341 142.807 22.3521 142.807 23.1234Z" fill="#245BA7"/>
<path fill-rule="evenodd" clip-rule="evenodd" d="M172.208 21.7155C172.196 21.7155 172.184 21.7132 172.172 21.7132C172.16 21.7132 172.15 21.7155 172.138 21.7155C169.816 21.7155 168.217 19.9777 168.217 17.8705C168.217 15.761 169.816 14.0232 172.138 14.0232C172.15 14.0232 172.16 14.0255 172.172 14.0255C172.184 14.0255 172.196 14.0232 172.208 14.0232C173.62 14.0232 174.765 14.6714 175.447 15.6518L177.537 13.6236C176.254 12.1901 174.317 11.3445 172.172 11.3445C168.375 11.3445 165.224 14 165.221 17.8705C165.224 21.7411 168.375 24.3942 172.172 24.3942C174.327 24.3942 176.273 23.5393 177.554 22.0942L175.462 20.0637C174.786 21.0603 173.632 21.7155 172.208 21.7155Z" fill="white"/>
<path fill-rule="evenodd" clip-rule="evenodd" d="M210.081 11.6761C208.225 11.6761 206.561 12.4823 205.434 13.7461C204.304 12.4823 202.642 11.6761 200.784 11.6761C199.637 11.6761 198.567 11.9897 197.648 12.5194V11.8759H194.628V17.6515V24.4842H197.648V17.6515C197.648 15.9741 199.055 14.6057 200.784 14.6057C202.515 14.6057 203.923 15.9741 203.923 17.6515V24.4842H206.942V17.6515C206.942 15.9741 208.35 14.6057 210.081 14.6057C211.81 14.6057 213.22 15.9741 213.22 17.6515V24.4842H216.237V17.6515C216.237 14.3571 213.474 11.6761 210.081 11.6761Z" fill="white"/>
</svg>
